<svg width="86" height="24" viewBox="0 0 86 24" fill="none" xmlns="http://www.w3.org/2000/svg">
<path d="M74.4283 5.63275C71.1436 5.63275 68.4927 8.28374 68.4927 11.5685C68.4927 14.8533 71.1436 17.5043 74.4283 17.5043C77.7131 17.5043 80.364 14.8533 80.364 11.5685C80.364 8.28374 77.7131 5.63275 74.4283 5.63275ZM74.4283 15.4263C72.3041 15.4263 70.5706 13.6928 70.5706 11.5685C70.5706 9.44427 72.3041 7.71071 74.4283 7.71071C76.5526 7.71071 78.2861 9.44427 78.2861 11.5685C78.2861 13.6928 76.5526 15.4263 74.4283 15.4263ZM80.6071 4.00628C79.8402 4.00628 79.2209 4.62561 79.2209 5.39255C79.2209 6.15948 79.8402 6.77881 80.6071 6.77881C81.374 6.77881 81.9933 6.16237 81.9933 5.39255C81.9936 5.21043 81.9579 5.03007 81.8883 4.86177C81.8187 4.69348 81.7166 4.54057 81.5878 4.4118C81.4591 4.28302 81.3061 4.18092 81.1379 4.11134C80.9696 4.04175 80.7892 4.00605 80.6071 4.00628ZM85.9987 11.5685C85.9987 9.97099 86.0132 8.38793 85.9234 6.79328C85.8337 4.94107 85.4112 3.29723 84.0568 1.94279C82.6995 0.585466 81.0586 0.165824 79.2064 0.0761071C77.6089 -0.0136097 76.0258 0.000860829 74.4312 0.000860829C72.8337 0.000860829 71.2507 -0.0136097 69.6561 0.0761071C67.8039 0.165824 66.1601 0.58836 64.8057 1.94279C63.4484 3.30012 63.0287 4.94107 62.939 6.79328C62.8493 8.39082 62.8638 9.97389 62.8638 11.5685C62.8638 13.1632 62.8493 14.7491 62.939 16.3438C63.0287 18.196 63.4513 19.8398 64.8057 21.1943C66.163 22.5516 67.8039 22.9712 69.6561 23.0609C71.2536 23.1507 72.8366 23.1362 74.4312 23.1362C76.0287 23.1362 77.6118 23.1507 79.2064 23.0609C81.0586 22.9712 82.7024 22.5487 84.0568 21.1943C85.4141 19.8369 85.8337 18.196 85.9234 16.3438C86.016 14.7491 85.9987 13.1661 85.9987 11.5685ZM83.4519 18.3928C83.2407 18.9195 82.986 19.3131 82.5779 19.7183C82.1699 20.1263 81.7792 20.381 81.2525 20.5923C79.7302 21.1972 76.1156 21.0611 74.4283 21.0611C72.7411 21.0611 69.1236 21.1972 67.6013 20.5952C67.0746 20.3839 66.681 20.1292 66.2758 19.7212C65.8678 19.3131 65.6131 18.9224 65.4018 18.3957C64.7999 16.8705 64.9359 13.2558 64.9359 11.5685C64.9359 9.88128 64.7999 6.26367 65.4018 4.74138C65.6131 4.21465 65.8678 3.82106 66.2758 3.41588C66.6839 3.01071 67.0746 2.75314 67.6013 2.54187C69.1236 1.9399 72.7411 2.07592 74.4283 2.07592C76.1156 2.07592 79.7331 1.9399 81.2554 2.54187C81.7821 2.75314 82.1757 3.00782 82.5808 3.41588C82.9889 3.82395 83.2436 4.21465 83.4548 4.74138C84.0568 6.26367 83.9208 9.88128 83.9208 11.5685C83.9208 13.2558 84.0568 16.8705 83.4519 18.3928Z" fill="#DA5C5C"/>
<path d="M28.8122 11.26C28.8122 11.189 28.8122 11.1084 28.809 11.0149C28.8058 10.7537 28.7993 10.4602 28.7929 10.1474C28.7672 9.24773 28.7221 8.35125 28.6514 7.50637C28.5549 6.34224 28.4134 5.3716 28.2205 4.64281C28.0169 3.88225 27.6178 3.18861 27.0631 2.63121C26.5084 2.07381 25.8175 1.67217 25.0595 1.46645C24.1495 1.22137 22.368 1.06981 19.8598 0.976288C18.6668 0.931142 17.3902 0.902119 16.1136 0.885995C15.6666 0.879546 15.2518 0.876321 14.8788 0.873096H13.9334C13.5604 0.876321 13.1456 0.879546 12.6986 0.885995C11.422 0.902119 10.1454 0.931142 8.95236 0.976288C6.44415 1.07303 4.65947 1.22459 3.75266 1.46645C2.99441 1.67167 2.30327 2.07313 1.74849 2.63061C1.19371 3.18809 0.794779 3.882 0.591679 4.64281C0.395524 5.3716 0.257252 6.34224 0.160782 7.50637C0.0900381 8.35125 0.045019 9.24773 0.0192938 10.1474C0.00964689 10.4602 0.00643124 10.7537 0.0032156 11.0149C0.0032156 11.1084 0 11.189 0 11.26V11.4405C0 11.5115 -4.91148e-08 11.5921 0.0032156 11.6856C0.00643124 11.9468 0.0128625 12.2403 0.0192938 12.5531C0.045019 13.4528 0.0900381 14.3493 0.160782 15.1941C0.257252 16.3583 0.39874 17.3289 0.591679 18.0577C1.00328 19.6023 2.21236 20.8213 3.75266 21.2341C4.65947 21.4791 6.44415 21.6307 8.95236 21.7242C10.1454 21.7694 11.422 21.7984 12.6986 21.8145C13.1456 21.821 13.5604 21.8242 13.9334 21.8274H14.8788C15.2518 21.8242 15.6666 21.821 16.1136 21.8145C17.3902 21.7984 18.6668 21.7694 19.8598 21.7242C22.368 21.6275 24.1527 21.4759 25.0595 21.2341C26.5998 20.8213 27.8089 19.6056 28.2205 18.0577C28.4167 17.3289 28.5549 16.3583 28.6514 15.1941C28.7221 14.3493 28.7672 13.4528 28.7929 12.5531C28.8025 12.2403 28.8058 11.9468 28.809 11.6856C28.809 11.5921 28.8122 11.5115 28.8122 11.4405V11.26ZM26.4969 11.4276C26.4969 11.4954 26.4969 11.5695 26.4937 11.6566C26.4905 11.9081 26.4841 12.1855 26.4776 12.4854C26.4551 13.3431 26.4101 14.2009 26.3426 14.9974C26.2557 16.0358 26.1336 16.8871 25.9824 17.4579C25.783 18.2028 25.1978 18.7929 24.4582 18.9896C23.7829 19.1702 22.0818 19.3153 19.7698 19.4024C18.5993 19.4476 17.3388 19.4766 16.0814 19.4927C15.6409 19.4992 15.2325 19.5024 14.8659 19.5024H13.9463L12.7307 19.4927C11.4734 19.4766 10.2161 19.4476 9.0424 19.4024C6.73035 19.3121 5.02605 19.1702 4.35398 18.9896C3.61439 18.7897 3.02914 18.2028 2.82977 17.4579C2.67863 16.8871 2.55644 16.0358 2.46962 14.9974C2.40209 14.2009 2.36028 13.3431 2.33456 12.4854C2.32491 12.1855 2.3217 11.9049 2.31848 11.6566C2.31848 11.5695 2.31526 11.4921 2.31526 11.4276V11.2729C2.31526 11.2051 2.31526 11.131 2.31848 11.0439C2.3217 10.7924 2.32813 10.515 2.33456 10.2151C2.35707 9.35737 2.40209 8.49959 2.46962 7.70308C2.55644 6.66472 2.67863 5.81339 2.82977 5.24261C3.02914 4.4977 3.61439 3.90757 4.35398 3.71086C5.02927 3.53028 6.73035 3.38516 9.0424 3.29809C10.2129 3.25295 11.4734 3.22393 12.7307 3.2078C13.1713 3.20135 13.5797 3.19813 13.9463 3.19813H14.8659L16.0814 3.2078C17.3388 3.22393 18.5961 3.25295 19.7698 3.29809C22.0818 3.38839 23.7861 3.53028 24.4582 3.71086C25.1978 3.91079 25.783 4.4977 25.9824 5.24261C26.1336 5.81339 26.2557 6.66472 26.3426 7.70308C26.4101 8.49959 26.4519 9.35737 26.4776 10.2151C26.4873 10.515 26.4905 10.7956 26.4937 11.0439C26.4937 11.131 26.4969 11.2084 26.4969 11.2729V11.4276ZM11.5442 15.6714L19.0045 11.318L11.5442 7.02911V15.6714Z" fill="#DA5C5C"/>
<path fill-rule="evenodd" clip-rule="evenodd" d="M37.223 3.0293C37.655 2.59731 38.2409 2.35463 38.8518 2.35463H52.6726C53.2835 2.35463 53.8694 2.59731 54.3014 3.0293C54.7334 3.46128 54.9761 4.04718 54.9761 4.65809V18.4789C54.9761 19.0898 54.7334 19.6757 54.3014 20.1077C53.8694 20.5397 53.2835 20.7824 52.6726 20.7824H38.8518C38.2409 20.7824 37.655 20.5397 37.223 20.1077C36.791 19.6757 36.5483 19.0898 36.5483 18.4789V4.65809C36.5483 4.04718 36.791 3.46128 37.223 3.0293ZM52.6726 0.0511589H38.8518C37.63 0.0511589 36.4582 0.536531 35.5942 1.4005C34.7302 2.26447 34.2449 3.43626 34.2449 4.65809V18.4789C34.2449 19.7007 34.7302 20.8725 35.5942 21.7365C36.4582 22.6005 37.63 23.0858 38.8518 23.0858H52.6726C53.8945 23.0858 55.0662 22.6005 55.9302 21.7365C56.7942 20.8725 57.2796 19.7007 57.2796 18.4789V4.65809C57.2796 3.43626 56.7942 2.26447 55.9302 1.4005C55.0662 0.536531 53.8945 0.0511589 52.6726 0.0511589ZM51.5209 17.1278V12.8698C51.5209 10.5894 50.3023 9.52747 48.6784 9.52747C47.3666 9.52747 46.7815 10.2485 46.4532 10.7552V10.7783H46.4371L46.4532 10.7541V9.70254H43.9839C44.0173 10.3993 43.9839 17.1278 43.9839 17.1278H46.4532V12.9804C46.4532 12.7592 46.4705 12.5381 46.535 12.3792C46.7135 11.9346 47.1201 11.4762 47.8019 11.4762C48.6957 11.4762 49.0527 12.1569 49.0527 13.1543V17.1278H51.5209ZM40.0035 7.40483C40.0035 6.67693 40.5564 6.1218 41.4006 6.1218C42.246 6.1218 42.7654 6.67693 42.7815 7.40483C42.7815 8.11775 42.246 8.68901 41.3845 8.68901H41.3683C40.5402 8.68901 40.0035 8.1189 40.0035 7.40483ZM42.6191 17.1278H40.1498V9.70254H42.6191V17.1278Z" fill="#DA5C5C"/>
</svg>
